<mxfile host="app.diagrams.net" modified="2024-03-29T12:39:58.323Z" agent="Mozilla/5.0 (Windows NT 10.0; Win64; x64) AppleWebKit/537.36 (KHTML, like Gecko) Chrome/123.0.0.0 Safari/537.36" etag="KdKCzZ73-N2nuKTT9Olt" version="24.0.7" type="device">
  <diagram name="Page-1" id="vJq0j7wgWQrLn06CrF02">
    <mxGraphModel dx="880" dy="1568" grid="1" gridSize="10" guides="1" tooltips="1" connect="1" arrows="1" fold="1" page="1" pageScale="1" pageWidth="850" pageHeight="1100" math="0" shadow="0">
      <root>
        <mxCell id="0" />
        <mxCell id="1" parent="0" />
        <mxCell id="WGvVDtQMG0jwV8dHwwPL-13" value="" style="whiteSpace=wrap;html=1;aspect=fixed;" vertex="1" parent="1">
          <mxGeometry x="230" y="100" width="330" height="330" as="geometry" />
        </mxCell>
        <mxCell id="WGvVDtQMG0jwV8dHwwPL-7" style="edgeStyle=orthogonalEdgeStyle;rounded=0;orthogonalLoop=1;jettySize=auto;html=1;exitX=0.5;exitY=0.5;exitDx=0;exitDy=0;exitPerimeter=0;" edge="1" parent="1" source="WGvVDtQMG0jwV8dHwwPL-1" target="WGvVDtQMG0jwV8dHwwPL-4">
          <mxGeometry relative="1" as="geometry" />
        </mxCell>
        <mxCell id="WGvVDtQMG0jwV8dHwwPL-8" style="edgeStyle=orthogonalEdgeStyle;rounded=0;orthogonalLoop=1;jettySize=auto;html=1;exitX=0.5;exitY=0.5;exitDx=0;exitDy=0;exitPerimeter=0;" edge="1" parent="1" source="WGvVDtQMG0jwV8dHwwPL-1" target="WGvVDtQMG0jwV8dHwwPL-5">
          <mxGeometry relative="1" as="geometry" />
        </mxCell>
        <mxCell id="WGvVDtQMG0jwV8dHwwPL-10" style="edgeStyle=orthogonalEdgeStyle;rounded=0;orthogonalLoop=1;jettySize=auto;html=1;exitX=0.5;exitY=0.5;exitDx=0;exitDy=0;exitPerimeter=0;" edge="1" parent="1" source="WGvVDtQMG0jwV8dHwwPL-1" target="WGvVDtQMG0jwV8dHwwPL-5">
          <mxGeometry relative="1" as="geometry" />
        </mxCell>
        <mxCell id="WGvVDtQMG0jwV8dHwwPL-11" style="edgeStyle=orthogonalEdgeStyle;rounded=0;orthogonalLoop=1;jettySize=auto;html=1;exitX=0.5;exitY=0.5;exitDx=0;exitDy=0;exitPerimeter=0;entryX=0;entryY=0.5;entryDx=0;entryDy=0;" edge="1" parent="1" source="WGvVDtQMG0jwV8dHwwPL-1" target="WGvVDtQMG0jwV8dHwwPL-5">
          <mxGeometry relative="1" as="geometry" />
        </mxCell>
        <mxCell id="WGvVDtQMG0jwV8dHwwPL-1" value="Admin" style="shape=umlActor;verticalLabelPosition=bottom;verticalAlign=top;html=1;outlineConnect=0;fillColor=#fad7ac;strokeColor=#b46504;" vertex="1" parent="1">
          <mxGeometry x="160" y="90" width="30" height="60" as="geometry" />
        </mxCell>
        <mxCell id="WGvVDtQMG0jwV8dHwwPL-2" value="Traveller" style="shape=umlActor;verticalLabelPosition=bottom;verticalAlign=top;html=1;outlineConnect=0;fillColor=#bac8d3;strokeColor=#23445d;" vertex="1" parent="1">
          <mxGeometry x="150" y="400" width="30" height="60" as="geometry" />
        </mxCell>
        <mxCell id="WGvVDtQMG0jwV8dHwwPL-22" style="edgeStyle=orthogonalEdgeStyle;rounded=0;orthogonalLoop=1;jettySize=auto;html=1;exitX=1;exitY=1;exitDx=0;exitDy=0;entryX=0;entryY=0.5;entryDx=0;entryDy=0;" edge="1" parent="1" source="WGvVDtQMG0jwV8dHwwPL-4" target="WGvVDtQMG0jwV8dHwwPL-17">
          <mxGeometry relative="1" as="geometry" />
        </mxCell>
        <mxCell id="WGvVDtQMG0jwV8dHwwPL-23" style="edgeStyle=orthogonalEdgeStyle;rounded=0;orthogonalLoop=1;jettySize=auto;html=1;exitX=1;exitY=0.5;exitDx=0;exitDy=0;entryX=0.5;entryY=1;entryDx=0;entryDy=0;" edge="1" parent="1" source="WGvVDtQMG0jwV8dHwwPL-4" target="WGvVDtQMG0jwV8dHwwPL-14">
          <mxGeometry relative="1" as="geometry" />
        </mxCell>
        <mxCell id="WGvVDtQMG0jwV8dHwwPL-4" value="Manage Trips" style="ellipse;whiteSpace=wrap;html=1;fillColor=#6a00ff;fontColor=#ffffff;strokeColor=#3700CC;" vertex="1" parent="1">
          <mxGeometry x="320" y="160" width="120" height="80" as="geometry" />
        </mxCell>
        <mxCell id="WGvVDtQMG0jwV8dHwwPL-25" style="edgeStyle=orthogonalEdgeStyle;rounded=0;orthogonalLoop=1;jettySize=auto;html=1;exitX=1;exitY=0.5;exitDx=0;exitDy=0;" edge="1" parent="1" source="WGvVDtQMG0jwV8dHwwPL-5" target="WGvVDtQMG0jwV8dHwwPL-18">
          <mxGeometry relative="1" as="geometry" />
        </mxCell>
        <mxCell id="WGvVDtQMG0jwV8dHwwPL-26" style="edgeStyle=orthogonalEdgeStyle;rounded=0;orthogonalLoop=1;jettySize=auto;html=1;exitX=1;exitY=0.5;exitDx=0;exitDy=0;" edge="1" parent="1" source="WGvVDtQMG0jwV8dHwwPL-5" target="WGvVDtQMG0jwV8dHwwPL-19">
          <mxGeometry relative="1" as="geometry" />
        </mxCell>
        <mxCell id="WGvVDtQMG0jwV8dHwwPL-5" value="Manage Travellers" style="ellipse;whiteSpace=wrap;html=1;fillColor=#d80073;fontColor=#ffffff;strokeColor=#A50040;" vertex="1" parent="1">
          <mxGeometry x="320" y="250" width="120" height="80" as="geometry" />
        </mxCell>
        <mxCell id="WGvVDtQMG0jwV8dHwwPL-6" value="Book Trips" style="ellipse;whiteSpace=wrap;html=1;fillColor=#a20025;fontColor=#ffffff;strokeColor=#6F0000;" vertex="1" parent="1">
          <mxGeometry x="320" y="340" width="120" height="80" as="geometry" />
        </mxCell>
        <mxCell id="WGvVDtQMG0jwV8dHwwPL-12" style="edgeStyle=orthogonalEdgeStyle;rounded=0;orthogonalLoop=1;jettySize=auto;html=1;exitX=0.5;exitY=0.5;exitDx=0;exitDy=0;exitPerimeter=0;entryX=0.008;entryY=0.713;entryDx=0;entryDy=0;entryPerimeter=0;" edge="1" parent="1" source="WGvVDtQMG0jwV8dHwwPL-2" target="WGvVDtQMG0jwV8dHwwPL-6">
          <mxGeometry relative="1" as="geometry" />
        </mxCell>
        <mxCell id="WGvVDtQMG0jwV8dHwwPL-14" value="Delete Trip" style="ellipse;whiteSpace=wrap;html=1;fillColor=#d80073;fontColor=#ffffff;strokeColor=#A50040;" vertex="1" parent="1">
          <mxGeometry x="580" y="100" width="120" height="80" as="geometry" />
        </mxCell>
        <mxCell id="WGvVDtQMG0jwV8dHwwPL-15" value="Search Traveller" style="ellipse;whiteSpace=wrap;html=1;fillColor=#b0e3e6;strokeColor=#0e8088;" vertex="1" parent="1">
          <mxGeometry x="550" y="580" width="120" height="80" as="geometry" />
        </mxCell>
        <mxCell id="WGvVDtQMG0jwV8dHwwPL-16" value="Update Trip" style="ellipse;whiteSpace=wrap;html=1;fillColor=#0050ef;fontColor=#ffffff;strokeColor=#001DBC;" vertex="1" parent="1">
          <mxGeometry x="580" y="10" width="120" height="80" as="geometry" />
        </mxCell>
        <mxCell id="WGvVDtQMG0jwV8dHwwPL-17" value="View Trip Details" style="ellipse;whiteSpace=wrap;html=1;fillColor=#e51400;fontColor=#ffffff;strokeColor=#B20000;" vertex="1" parent="1">
          <mxGeometry x="590" y="200" width="120" height="80" as="geometry" />
        </mxCell>
        <mxCell id="WGvVDtQMG0jwV8dHwwPL-18" value="Delete Traveller" style="ellipse;whiteSpace=wrap;html=1;fillColor=#fa6800;fontColor=#000000;strokeColor=#C73500;" vertex="1" parent="1">
          <mxGeometry x="590" y="290" width="120" height="80" as="geometry" />
        </mxCell>
        <mxCell id="WGvVDtQMG0jwV8dHwwPL-19" value="Add Traveller" style="ellipse;whiteSpace=wrap;html=1;fillColor=#f0a30a;fontColor=#000000;strokeColor=#BD7000;" vertex="1" parent="1">
          <mxGeometry x="600" y="390" width="120" height="80" as="geometry" />
        </mxCell>
        <mxCell id="WGvVDtQMG0jwV8dHwwPL-20" value="Update Traveller" style="ellipse;whiteSpace=wrap;html=1;fillColor=#e3c800;fontColor=#000000;strokeColor=#B09500;" vertex="1" parent="1">
          <mxGeometry x="590" y="480" width="120" height="80" as="geometry" />
        </mxCell>
        <mxCell id="WGvVDtQMG0jwV8dHwwPL-27" style="edgeStyle=orthogonalEdgeStyle;rounded=0;orthogonalLoop=1;jettySize=auto;html=1;exitX=1;exitY=0.5;exitDx=0;exitDy=0;entryX=0.008;entryY=0.388;entryDx=0;entryDy=0;entryPerimeter=0;" edge="1" parent="1" source="WGvVDtQMG0jwV8dHwwPL-5" target="WGvVDtQMG0jwV8dHwwPL-20">
          <mxGeometry relative="1" as="geometry" />
        </mxCell>
        <mxCell id="WGvVDtQMG0jwV8dHwwPL-28" style="edgeStyle=orthogonalEdgeStyle;rounded=0;orthogonalLoop=1;jettySize=auto;html=1;exitX=1;exitY=0.5;exitDx=0;exitDy=0;entryX=0.3;entryY=0.063;entryDx=0;entryDy=0;entryPerimeter=0;" edge="1" parent="1" source="WGvVDtQMG0jwV8dHwwPL-5" target="WGvVDtQMG0jwV8dHwwPL-15">
          <mxGeometry relative="1" as="geometry" />
        </mxCell>
        <mxCell id="WGvVDtQMG0jwV8dHwwPL-29" style="edgeStyle=orthogonalEdgeStyle;rounded=0;orthogonalLoop=1;jettySize=auto;html=1;exitX=1;exitY=0;exitDx=0;exitDy=0;entryX=0.008;entryY=0.675;entryDx=0;entryDy=0;entryPerimeter=0;" edge="1" parent="1" source="WGvVDtQMG0jwV8dHwwPL-4" target="WGvVDtQMG0jwV8dHwwPL-16">
          <mxGeometry relative="1" as="geometry" />
        </mxCell>
        <mxCell id="WGvVDtQMG0jwV8dHwwPL-36" style="edgeStyle=orthogonalEdgeStyle;rounded=0;orthogonalLoop=1;jettySize=auto;html=1;exitX=0.5;exitY=0;exitDx=0;exitDy=0;entryX=0;entryY=0.5;entryDx=0;entryDy=0;" edge="1" parent="1" source="WGvVDtQMG0jwV8dHwwPL-30" target="WGvVDtQMG0jwV8dHwwPL-35">
          <mxGeometry relative="1" as="geometry" />
        </mxCell>
        <mxCell id="WGvVDtQMG0jwV8dHwwPL-37" style="edgeStyle=orthogonalEdgeStyle;rounded=0;orthogonalLoop=1;jettySize=auto;html=1;exitX=1;exitY=0;exitDx=0;exitDy=0;" edge="1" parent="1" source="WGvVDtQMG0jwV8dHwwPL-30" target="WGvVDtQMG0jwV8dHwwPL-34">
          <mxGeometry relative="1" as="geometry" />
        </mxCell>
        <mxCell id="WGvVDtQMG0jwV8dHwwPL-40" style="edgeStyle=orthogonalEdgeStyle;rounded=0;orthogonalLoop=1;jettySize=auto;html=1;exitX=1;exitY=0;exitDx=0;exitDy=0;entryX=0;entryY=0.5;entryDx=0;entryDy=0;" edge="1" parent="1" source="WGvVDtQMG0jwV8dHwwPL-30" target="WGvVDtQMG0jwV8dHwwPL-33">
          <mxGeometry relative="1" as="geometry" />
        </mxCell>
        <mxCell id="WGvVDtQMG0jwV8dHwwPL-30" value="Add Trip" style="ellipse;whiteSpace=wrap;html=1;fillColor=#ffe6cc;strokeColor=#d79b00;" vertex="1" parent="1">
          <mxGeometry x="350" width="120" height="80" as="geometry" />
        </mxCell>
        <mxCell id="WGvVDtQMG0jwV8dHwwPL-31" style="edgeStyle=orthogonalEdgeStyle;rounded=0;orthogonalLoop=1;jettySize=auto;html=1;exitX=1;exitY=0;exitDx=0;exitDy=0;entryX=0.625;entryY=0.963;entryDx=0;entryDy=0;entryPerimeter=0;" edge="1" parent="1" source="WGvVDtQMG0jwV8dHwwPL-4" target="WGvVDtQMG0jwV8dHwwPL-30">
          <mxGeometry relative="1" as="geometry" />
        </mxCell>
        <mxCell id="WGvVDtQMG0jwV8dHwwPL-32" value="Specify Transfer Points" style="ellipse;whiteSpace=wrap;html=1;fillColor=#f8cecc;strokeColor=#b85450;" vertex="1" parent="1">
          <mxGeometry x="490" y="-200" width="120" height="80" as="geometry" />
        </mxCell>
        <mxCell id="WGvVDtQMG0jwV8dHwwPL-33" value="Specify point of interest" style="ellipse;whiteSpace=wrap;html=1;fillColor=#d5e8d4;strokeColor=#82b366;" vertex="1" parent="1">
          <mxGeometry x="600" y="-100" width="120" height="80" as="geometry" />
        </mxCell>
        <mxCell id="WGvVDtQMG0jwV8dHwwPL-34" value="Specify Hospitality" style="ellipse;whiteSpace=wrap;html=1;fillColor=#e1d5e7;strokeColor=#9673a6;" vertex="1" parent="1">
          <mxGeometry x="700" y="-190" width="120" height="80" as="geometry" />
        </mxCell>
        <mxCell id="WGvVDtQMG0jwV8dHwwPL-35" value="Specify Trip Type" style="ellipse;whiteSpace=wrap;html=1;fillColor=#ffe6cc;strokeColor=#d79b00;" vertex="1" parent="1">
          <mxGeometry x="690" y="-300" width="120" height="80" as="geometry" />
        </mxCell>
        <mxCell id="WGvVDtQMG0jwV8dHwwPL-39" style="edgeStyle=orthogonalEdgeStyle;rounded=0;orthogonalLoop=1;jettySize=auto;html=1;exitX=1;exitY=0.5;exitDx=0;exitDy=0;entryX=0.45;entryY=0.975;entryDx=0;entryDy=0;entryPerimeter=0;" edge="1" parent="1" source="WGvVDtQMG0jwV8dHwwPL-30" target="WGvVDtQMG0jwV8dHwwPL-32">
          <mxGeometry relative="1" as="geometry" />
        </mxCell>
      </root>
    </mxGraphModel>
  </diagram>
</mxfile>
